PathFileType	4	(X/Y/Z)	\\147.46.242.158\로컬 디스크 (e)\MOCAP Data\Iguana Capture\iguana\Project 2\Capture day 7\Session 2\Take14.trc
DataRate	CameraRate	NumFrames	NumMarkers	Units	OrigDataRate	OrigDataStartFrame	OrigNumFrames
120.0	120.0	11	23	mm	120.0	93	5026
Frame#	Time	ana:head1			ana:head2			ana:bone1			ana:bone2			ana:bone3			ana:tail1			ana:tail2			ana:tail3			ana:tail4			ana:Rforefoot1			ana:Rforefoot2			ana:Rforefoot3			ana:Lforefoot1			ana:Lforefoot2			ana:Lforefoot3			ana:RhindLeg1			ana:RhindLeg2			ana:RhindLeg3			ana:RhindLeg4			ana:LhindLeg1			ana:LhindLeg2			ana:LhindLeg3			ana:LhindLeg4			
		X1	Y1	Z1	X2	Y2	Z2	X3	Y3	Z3	X4	Y4	Z4	X5	Y5	Z5	X6	Y6	Z6	X7	Y7	Z7	X8	Y8	Z8	X9	Y9	Z9	X10	Y10	Z10	X11	Y11	Z11	X12	Y12	Z12	X13	Y13	Z13	X14	Y14	Z14	X15	Y15	Z15	X16	Y16	Z16	X17	Y17	Z17	X18	Y18	Z18	X19	Y19	Z19	X20	Y20	Z20	X21	Y21	Z21	X22	Y22	Z22	X23	Y23	Z23	

2843	23.683	432.68182	172.38274	45.13590	422.07861	172.47560	46.64300	400.03998	172.14780	41.26019	371.24744	177.65399	40.26331	337.79080	180.13582	33.53908	306.25543	178.91048	23.64003	274.67773	192.44753	11.22073	242.23479	216.72507	6.48522	208.69009	243.30516	4.93905	395.97705	159.06291	23.31086	381.56546	152.71861	19.58620	377.59860	154.72800	5.95393	407.81171	182.17960	25.07412	413.06677	191.36488	17.23569	426.35913	191.53024	3.89662	339.05664	170.28545	27.63510	353.73495	155.35472	26.26911	350.14185	144.44324	8.01084	360.48013	144.05843	7.47399	334.30399	188.66975	25.63366	326.88440	203.10374	17.01243	309.03125	203.21555	7.53617	318.99780	206.75145	3.48496	
2844	23.692	434.49487	172.28728	44.88992	423.94977	172.40483	46.45430	401.83829	171.84721	41.06170	373.04974	177.06631	40.16626	339.41653	179.58223	33.47615	308.04465	177.99771	23.59602	276.19608	191.07066	11.22378	243.66455	215.23587	6.44325	210.30011	241.96831	4.96516	397.59335	158.86659	23.14050	383.15869	152.69743	19.45740	378.10892	154.34692	6.37056	409.25375	182.18350	24.81813	413.74762	191.78899	16.92842	426.53391	191.77863	3.31810	341.00885	169.42648	27.39447	355.48911	154.64272	25.22259	351.64679	144.70329	6.53692	362.29068	144.24379	5.57584	335.95682	188.03070	25.66343	327.96494	202.28239	17.46706	309.61111	202.59256	8.26154	319.02277	207.07207	3.89911	
2845	23.700	436.36932	172.28229	44.69233	425.85138	172.27950	46.25455	403.66983	171.53345	40.89052	374.88440	176.41435	40.05913	341.11893	178.91252	33.47199	309.85941	177.19037	23.51768	277.76880	189.80223	11.17083	245.08998	213.78682	6.39997	211.83725	240.65414	4.99527	399.34406	158.68608	22.95461	384.88968	152.64732	19.29913	378.69275	153.97087	6.75030	410.67902	182.21335	24.66860	414.37015	192.29941	16.81448	426.58786	191.97163	3.00523	342.98178	168.45181	27.11113	356.94199	153.72025	24.16811	352.28433	144.81731	5.21793	363.23114	144.39381	3.95429	337.71756	187.34108	25.70273	329.19321	201.45905	17.93763	310.36026	201.97473	9.07282	319.17053	207.43091	4.43478	
2846	23.708	438.28156	172.31865	44.54767	427.77631	172.22067	46.09590	405.52435	171.20764	40.73843	376.75269	175.70985	39.92005	342.85730	178.21092	33.45988	311.67874	176.50206	23.46020	279.35773	188.67847	11.12007	246.52345	212.42046	6.34998	213.32211	239.33003	5.01520	401.19940	158.60596	22.67480	386.74341	152.55606	19.13261	379.37723	153.63341	7.08567	412.08966	182.22713	24.61155	414.94150	192.75121	16.81104	426.62415	192.07507	2.83475	344.96655	167.50316	26.81888	358.16916	152.65463	23.21252	352.55692	144.82851	4.07367	363.63116	144.35927	2.88476	339.55945	186.62242	25.78054	330.57886	200.60034	18.39218	311.28949	201.44255	10.00875	319.52127	207.70421	5.03324	
2847	23.717	440.21494	172.41087	44.44853	429.68634	172.13879	45.93559	407.40381	170.87404	40.60355	378.61707	175.03264	39.78411	344.66699	177.48923	33.49615	313.50650	175.95087	23.47305	280.97784	187.71954	11.12065	247.92604	211.15413	6.32198	214.77791	238.06718	5.04321	403.13995	158.57524	22.34610	388.72098	152.39313	18.98229	380.19324	153.35197	7.37056	413.48077	182.21169	24.56691	415.51132	193.07562	16.89499	426.63412	192.12360	2.73582	346.69659	166.63719	26.61575	359.22855	151.52016	22.43468	352.63754	144.65723	3.28364	363.78775	144.26158	2.38718	341.45871	185.85237	25.87291	332.13095	199.76401	18.84043	312.37842	201.01988	11.02497	320.09537	207.83177	5.66090	
2848	23.725	442.13806	172.52623	44.36605	431.59030	172.12799	45.81054	409.29950	170.53632	40.47817	380.48450	174.29201	39.68761	346.48956	176.83652	33.54105	315.35040	175.52913	23.62396	282.60388	186.92065	11.22003	249.31720	209.98802	6.30362	216.20514	236.88873	5.02360	405.14578	158.55592	21.96605	390.80814	152.16763	18.86650	381.16922	153.12509	7.60010	414.83383	182.16719	24.56604	416.07474	193.22789	16.98875	426.58078	192.16115	2.64332	348.25119	165.95457	26.54522	360.19290	150.38959	21.86229	352.74957	144.46933	2.82455	363.78397	144.07648	2.29197	343.37631	185.11446	26.05243	333.80231	198.97577	19.30631	313.68066	200.82486	12.11346	320.87186	207.79823	6.25830	
2849	23.733	444.06412	172.64427	44.31043	433.47449	172.11162	45.68624	411.19589	170.19997	40.37664	382.37381	173.54369	39.63710	348.38760	176.14281	33.64557	317.18188	175.21136	23.94465	284.20050	186.24489	11.47366	250.69157	208.91092	6.31007	217.63611	235.81981	5.00504	407.22711	158.46004	21.65783	392.95496	151.84695	18.82963	382.33038	152.93544	7.77299	416.15759	182.10110	24.56914	416.69522	193.20966	17.13710	426.55588	192.22241	2.54581	349.69794	165.32899	26.57701	361.09250	149.30690	21.44869	352.85574	144.35034	2.55370	363.74542	143.89447	2.35432	345.29892	184.39236	26.28750	335.57431	198.27486	19.85718	315.12103	200.71696	13.22052	321.84961	207.58655	6.84051	
2850	23.742	445.95334	172.76680	44.23611	435.34723	172.11111	45.56483	413.09216	169.88441	40.27873	384.24765	172.76433	39.64219	350.36746	175.41789	33.82143	319.00443	175.00322	24.43259	285.77621	185.70456	11.87588	252.02632	207.89128	6.31473	219.03239	234.82790	4.97724	409.36481	158.27847	21.46620	395.11542	151.45612	18.90890	383.69312	152.75514	7.89489	417.43808	182.01218	24.54497	417.33871	193.13449	17.26707	426.49573	192.28264	2.40733	351.16046	164.71368	26.71574	361.95456	148.29713	21.13011	353.04648	144.32036	2.47162	363.76157	143.76695	2.44728	347.23053	183.71277	26.60031	337.44193	197.67159	20.45054	316.69366	200.69145	14.33079	322.86276	207.40891	7.44786	
2851	23.750	447.80612	172.90240	44.11279	437.21567	172.18431	45.44524	414.99002	169.61246	40.22610	386.13025	171.99113	39.68554	352.37161	174.68645	34.05182	320.80624	174.87743	25.01830	287.33981	185.28435	12.39160	253.34868	206.92879	6.34868	220.37920	233.87961	4.95748	411.50671	158.09427	21.39179	397.31076	151.05228	19.14282	385.27792	152.55078	7.97262	418.70874	181.93037	24.54612	418.02524	193.02663	17.44621	426.43344	192.32893	2.25213	352.68195	164.06126	26.87166	362.69653	147.33832	20.78954	353.10535	144.33574	2.39156	363.77115	143.62357	2.45357	349.17740	183.10849	27.00072	339.38309	197.20116	21.14149	318.39389	200.74530	15.40474	323.96725	207.28749	8.16273	
2852	23.758	449.63443	173.01878	43.98106	439.06967	172.29156	45.30723	416.85999	169.40280	40.18149	388.00656	171.25096	39.74365	354.37015	173.93448	34.34160	322.59167	174.82974	25.64097	288.87839	184.96301	12.97069	254.63377	206.01382	6.41523	221.66713	232.94531	4.94917	413.67761	157.96729	21.41427	399.52823	150.63045	19.57652	387.10556	152.28885	8.01302	419.93961	181.86783	24.54026	418.66879	193.03893	17.66661	426.41623	192.38911	2.13524	354.26111	163.39481	27.06058	363.28833	146.43314	20.46084	353.17191	144.31993	2.38320	363.78525	143.43637	2.47006	351.13940	182.57349	27.45074	341.42706	196.83794	21.88438	320.22495	200.79004	16.45377	325.15073	207.14790	8.93713	
2853	23.767	451.45596	173.15392	43.84127	440.90582	172.38445	45.14301	418.71967	169.26785	40.14432	389.86786	170.56622	39.82018	356.30676	173.24519	34.64994	324.37198	174.86629	26.22597	290.43475	184.75041	13.54362	255.92409	205.17337	6.51235	222.88603	232.02422	4.94953	415.90100	157.88652	21.57086	401.82993	150.20779	20.24583	389.19659	151.93582	8.02292	421.15680	181.84352	24.48422	419.26593	193.18333	17.93504	426.40079	192.43736	2.03781	355.83673	162.72954	27.24021	363.75812	145.59245	20.12847	353.20251	144.24370	2.43018	363.84839	143.46890	2.40938	353.13181	182.03705	27.89803	343.56125	196.53047	22.62318	322.22568	200.78828	17.45370	326.51636	206.99373	9.82951	
